<svg 
          width="16.620784759521484" 
          height="16.623764038085938" fill="none" 
          xmlns="http://www.w3.org/2000/svg">
          <path d="M 11.083333757296096 0 C 11.293296827484895 1.7578531979567324e-16 11.49466094944721 0.08340746833632567 11.64312725099951 0.23187377059737707 C 11.791593552551811 0.38034007285842847 11.875000454245818 0.5817036295378718 11.875000454245818 0.7916667007289975 L 11.875000454245818 1.5825417921366731 L 15.833333938994423 1.583333401457995 L 15.833333938994423 6.33333360583198 L 14.234166848759733 6.332541619014558 L 16.42470875625799 12.346041654274332 C 16.573189414458767 12.74812284821292 16.638498787514465 13.17616204239847 16.616679111959446 13.60422709506686 C 16.594859436404427 14.032292147735248 16.48636567761407 14.451473372345024 16.29777040835421 14.836372854893828 C 16.10917513909435 15.221272337442631 15.8444040592558 15.563878407423472 15.519498782946544 15.843435810211124 C 15.194593506637288 16.12299321299878 14.816317265746164 16.33368203223856 14.407587046204608 16.462737791762464 C 13.99885682666305 16.59179355128637 13.568181437707388 16.636529788303278 13.141652371518328 16.594236293158044 C 12.715123305329268 16.55194279801281 12.301618538733493 16.42349952591086 11.926191945105783 16.21668885386881 C 11.550765351478073 16.00987818182676 11.221231430356482 15.729005016383185 10.957553567421037 15.391085253766025 C 10.693875704485592 15.053165491148865 10.501543353619642 14.665233252121123 10.392208616100175 14.250791844947177 L 7.0252499486151345 14.250791844947177 C 6.845082704426627 14.945566291426374 6.434342990578051 15.55857668704306 5.860293215171965 15.989434691792976 C 5.2862434397658795 16.42029269654289 4.582906299799092 16.643462477633772 3.8654607622260317 16.62239901218899 C 3.148015224652972 16.601335546744206 2.4589826858893993 16.33728743850417 1.9111989474223392 15.873493559663164 C 1.3634152089552791 15.409699680822158 0.989346256450584 14.773647819825717 0.8502499389049681 14.069500098000985 C 0.5939330611328171 13.935609887487725 0.37917910538680555 13.734079642686707 0.22929056369171866 13.486777488522169 C 0.07940202199663177 13.23947533435763 0.0001036169302927552 12.955846942849004 0 12.66666721166396 L 0 8.708333708018973 L 7.12500027254749 8.708333708018973 C 7.12502585173862 8.902239251205575 7.196215406902131 9.089392592435223 7.325066409567032 9.234295248936705 C 7.453917412231934 9.379197905438188 7.631468478696895 9.4717718181222 7.824042261911035 9.494458766002618 L 7.916666969497212 9.500000408747969 L 9.500000363396653 9.500000408747969 C 9.693905905657585 9.499974829556717 9.881059245993796 9.42878527405336 10.025961901803539 9.299934270773347 C 10.170864557613282 9.171083267493334 10.263438469855364 8.993532200180773 10.286125417627478 8.800958416047322 L 10.291667060346375 8.708333708018973 L 10.291667060346375 1.583333401457995 L 7.916666969497212 1.583333401457995 L 7.916666969497212 0 L 11.083333757296096 0 Z M 3.958333484748606 11.875000510934962 C 3.538407344371007 11.87500051093496 3.1356802329346682 12.041815825103713 2.838747629830069 12.338748429625817 C 2.54181502672547 12.63568103414792 2.3750000908491646 13.038407770010705 2.3750000908491633 13.458333912392957 C 2.375000090849164 13.87826005477521 2.54181502672547 14.280986790637995 2.838747629830069 14.577919395160098 C 3.1356802329346682 14.874851999682202 3.538407344371007 15.041667313850953 3.958333484748606 15.041667313850953 C 4.378259625126204 15.041667313850953 4.780986359066445 14.874851999682202 5.0779189621710445 14.577919395160098 C 5.374851565275644 14.280986790637995 5.541666878648048 13.87826005477521 5.541666878648048 13.458333912392957 C 5.541666878648048 13.038407770010705 5.374851565275644 12.63568103414792 5.0779189621710445 12.338748429625817 C 4.780986359066445 12.041815825103713 4.378259625126204 11.87500051093496 3.958333484748606 11.875000510934962 Z M 13.458333848145259 11.875000510934962 C 13.03840770776766 11.87500051093496 12.63568097382742 12.041815825103713 12.33874837072282 12.338748429625817 C 12.041815767618221 12.63568103414792 11.875000454245818 13.038407770010705 11.875000454245818 13.458333912392957 C 11.875000454245818 13.87826005477521 12.041815767618221 14.280986790637995 12.33874837072282 14.577919395160098 C 12.63568097382742 14.874851999682202 13.03840770776766 15.041667313850953 13.458333848145259 15.041667313850953 C 13.878259988522856 15.041667313850953 14.2809867224631 14.874851999682202 14.577919325567699 14.577919395160098 C 14.874851928672298 14.280986790637995 15.041667242044701 13.87826005477521 15.041667242044701 13.458333912392957 C 15.041667242044701 13.038407770010705 14.874851928672298 12.63568103414792 14.577919325567699 12.338748429625817 C 14.2809867224631 12.041815825103713 13.878259988522856 11.87500051093496 13.458333848145259 11.875000510934962 Z M 6.333333575597769 1.583333401457995 C 6.543296645786568 1.5833334014579954 6.744660012756689 1.6667408697943205 6.893126314308988 1.815207172055372 C 7.041592615861288 1.9636734743164235 7.12500027254749 2.1650370309958666 7.12500027254749 2.375000102186992 L 7.12500027254749 7.916667007289975 L 0 7.916667007289975 L 0 2.375000102186992 C 0 2.1650370309958666 0.0834074679381532 1.9636734743164235 0.23187376949045282 1.815207172055372 C 0.38034007104275247 1.6667408697943205 0.5817036267609219 1.5833334014579954 0.7916666969497211 1.583333401457995 L 6.333333575597769 1.583333401457995 Z M 14.25000054509498 3.16666680291599 L 11.875000454245818 3.16666680291599 L 11.875000454245818 4.750000204373984 L 14.25000054509498 4.750000204373984 L 14.25000054509498 3.16666680291599 Z M 5.541666878648048 3.16666680291599 L 1.5833333938994423 3.16666680291599 L 1.5833333938994423 3.9583335036449876 L 5.541666878648048 3.9583335036449876 L 5.541666878648048 3.16666680291599 Z" fill="rgb(0,0,0)"/>
        </svg>