<svg 
          width="16.66666603088379" 
          height="16.66667366027832" fill="none" 
          xmlns="http://www.w3.org/2000/svg">
          <path d="M 1.666666603088379 15.000006930033392 C 1.2083332773049678 15.000006930033392 0.8161111361397616 14.836951464155018 0.49000003058115454 14.51084033371611 C 0.16388892502254748 14.184729203277204 0.0005555555284126768 13.792229125520961 0 13.333340199788461 L 0 4.166672388712717 L 1.666666603088379 4.166672388712717 L 1.666666603088379 13.333340199788461 L 7.499999713897705 13.333340199788461 L 7.499999713897705 15.000006930033392 L 1.666666603088379 15.000006930033392 Z M 4.166666507720947 3.333339023590252 C 3.708333181937536 3.333339023590252 3.316110842090189 3.170283557711877 2.9899997365315816 2.844172427272971 C 2.6638886309729743 2.518061296834065 2.500555460160981 2.1255612190778224 2.4999999046325687 1.6666722933453215 C 2.4994443491041562 1.2077833676128207 2.6627775259309407 0.8155612461939838 2.9899997365315816 0.49000568073611483 C 3.3172219471322224 0.16445011527824577 3.7094443118148375 0.001116741770834953 4.166666507720947 0.000005630629238566091 C 4.623888703627057 -0.0011054805123578207 5.016388776273195 0.16222788018936712 5.344166551812487 0.49000568073611483 C 5.6719443273517784 0.8177834812828626 5.834999777491578 1.210005627536969 5.833333110809327 1.6666722933453215 C 5.831666444127076 2.123338959153674 5.668610987390409 2.515839086580456 5.344166551812487 2.844172427272971 C 5.019722116234565 3.1725057679654864 4.627222043588427 3.335561245873445 4.166666507720947 3.333339023590252 Z M 8.333333015441895 16.66667366027832 L 8.333333015441895 12.500006039937368 L 4.166666507720947 12.500006039937368 C 3.708333181937536 12.500006039937368 3.316110842090189 12.336950574058994 2.9899997365315816 12.010839443620087 C 2.6638886309729743 11.68472831318118 2.500555460160981 11.292228235424938 2.4999999046325687 10.833339309692438 L 2.4999999046325687 5.916672773361345 C 2.4999999046325687 5.43056166026342 2.666666480501496 5.017505678208805 2.9999998060862256 4.677505671596669 C 3.333333131670955 4.3375056649845325 3.736111130846865 4.167227944283516 4.20833333174387 4.166672388712717 C 4.472222207254828 4.166672388712717 4.718888867690823 4.222227781646926 4.948333313051854 4.333338902791485 C 5.177777758412884 4.444450023936043 5.375555027106086 4.597227959864815 5.541666137377433 4.791672412554566 C 6.166666113535575 5.472227990759876 6.836943961641532 6.093894624715503 7.552499483013162 6.656672413762523 C 8.268055004384792 7.2194502028095435 9.083888581572639 7.500561404773376 9.999999618530275 7.500005849202577 L 11.124999893506356 7.500005849202577 C 10.777777692808034 7.263894730740231 10.503610642414625 6.968894494181312 10.3024995370547 6.615005586560675 C 10.101388431694776 6.261116678940038 10.000555174058688 5.861672436285145 9.999999618530275 5.416672436396414 L 15.02083244244259 5.416672436396414 C 15.02083244244259 5.861116920974648 14.91999997652767 6.26056113879427 14.718333318646728 6.615005586560675 C 14.516666660765786 6.969450034327079 14.242777728117819 7.264450295721267 13.89666663246153 7.500005849202577 L 16.66666603088379 7.500005849202577 L 16.66666603088379 9.166672579447507 L 13.333332824707032 9.166672579447507 L 13.333332824707032 16.66667366027832 L 11.666666221618653 16.66667366027832 L 11.666666221618653 9.166672579447507 L 9.999999618530275 9.166672579447507 C 9.263888542122313 9.166672579447507 8.52083282947541 9.006950503455355 7.770832877953854 8.687506053447816 C 7.0208329264322975 8.368061603440276 6.374999736944836 7.986117160982659 5.833333110809327 7.541672676404426 L 5.833333110809327 10.416672627131206 L 8.333333015441895 10.416672627131206 C 8.791666341225305 10.416672627131206 9.184166413871443 10.580006223193873 9.510833059533434 10.906672893778547 C 9.837499705195425 11.23333956436322 10.000555174058688 11.625561561605709 9.999999618530275 12.083339357376136 L 9.999999618530275 16.66667366027832 L 8.333333015441895 16.66667366027832 Z" fill="rgb(0,0,0)"/>
        </svg>