<svg width="48" height="48" viewBox="0 0 48 48" fill="none" xmlns="http://www.w3.org/2000/svg">
<path d="M35.9878 0L12.0122 0C5.38853 0 0 5.62788 0 12.5458L0 35.4542C0 42.3721 5.38853 48 12.0122 48H35.9878C42.6115 48 48 42.3721 48 35.4542V12.5458C48 5.62788 42.6115 0 35.9878 0ZM4.23753 12.5458C4.23753 8.06899 7.72582 4.42575 12.0122 4.42575H35.9878C40.2742 4.42575 43.7625 8.06899 43.7625 12.5458V35.4542C43.7625 39.931 40.2742 43.5743 35.9878 43.5743H12.0122C7.72582 43.5743 4.23753 39.931 4.23753 35.4542V12.5458Z" fill="#FAF9F6"/>
<path d="M24.0001 35.667C30.1595 35.667 35.1735 30.4333 35.1735 23.9973C35.1735 17.5614 30.1623 12.3276 24.0001 12.3276C17.8379 12.3276 12.8267 17.5614 12.8267 23.9973C12.8267 30.4333 17.8379 35.667 24.0001 35.667ZM24.0001 16.7562C27.825 16.7562 30.9359 20.0054 30.9359 24.0002C30.9359 27.995 27.825 31.2441 24.0001 31.2441C20.1752 31.2441 17.0642 27.995 17.0642 24.0002C17.0642 20.0054 20.1752 16.7562 24.0001 16.7562Z" fill="#FAF9F6"/>
<path d="M36.2078 14.2128C37.8664 14.2128 39.2183 12.8037 39.2183 11.0685C39.2183 9.3334 37.8691 7.92432 36.2078 7.92432C34.5464 7.92432 33.1973 9.3334 33.1973 11.0685C33.1973 12.8037 34.5464 14.2128 36.2078 14.2128Z" fill="#FAF9F6"/>
</svg>
