<svg width="30" height="20" viewBox="0 0 30 20" fill="none" xmlns="http://www.w3.org/2000/svg">
<path d="M0.232155 1.75635C0.566952 1.96117 0.913279 2.30709 1.22049 2.56234L8.12375 8.32841C8.66705 8.7891 9.25712 9.22519 9.77004 9.71448C9.10206 10.2108 8.50025 10.8019 7.86449 11.3361L6.19331 12.7463C5.82575 13.0602 5.44785 13.3676 5.11554 13.7165C4.83397 13.818 0.610162 17.4241 0.232155 17.9809C-0.12818 17.0278 0.0457377 15.9113 0.0458454 14.9168L0.0446599 5.12647C0.0446599 4.04958 -0.136908 2.78363 0.232155 1.75635Z" fill="#FAF9F6"/>
<path d="M29.7309 1.63672C30.132 2.0093 29.9662 4.67625 29.9662 5.22514L29.9674 14.6618C29.9682 15.7616 30.1199 16.9251 29.7309 17.9806C28.1378 16.5194 26.4592 15.1528 24.8441 13.7162C24.1376 13.1519 23.4855 12.5179 22.7872 11.9418L21.0527 10.5327C20.7377 10.2738 20.3906 10.0196 20.1248 9.71424C20.7854 9.11152 21.4895 8.54328 22.1773 7.96897L27.9281 3.15391C28.5295 2.64979 29.1148 2.12437 29.7309 1.63672Z" fill="#FAF9F6"/>
<path d="M11.0132 10.8203C11.3766 10.8433 12.9222 12.8976 14.56 13.0662C16.5336 13.2694 17.49 11.8647 18.8535 10.8203C19.4959 11.3494 20.1227 11.8985 20.7592 12.4345L27.6503 18.3009C28.0152 18.6174 28.4322 18.9305 28.7426 19.2956C27.3846 20.1514 26.67 19.9844 25.1042 19.9841L21.2837 19.9851L9.08449 19.9849C7.04036 19.9849 4.98902 20.0193 2.94554 19.9841C2.30482 19.973 1.58684 19.744 1.1333 19.2956C2.29911 18.2351 3.52386 17.2262 4.729 16.2062L8.52243 12.9703C9.17188 12.4206 10.3512 11.2261 11.0132 10.8203Z" fill="#FAF9F6"/>
<path d="M2.67728 0.0182256C3.01607 -0.0150186 3.38837 0.0153427 3.73103 0.0158573L25.6576 0.0167839C26.682 0.0163722 27.729 -0.124428 28.6341 0.416846C28.2164 0.806823 27.7333 1.15192 27.2954 1.52368L23.3433 4.85346C22.8227 5.29922 22.2334 5.72244 21.7711 6.22172C21.4216 6.37961 20.869 6.93745 20.5588 7.20073L17.3441 9.89114C16.534 10.5694 15.3913 11.9689 14.1643 11.2461C13.3161 10.7465 11.3809 8.93066 10.5341 8.22224L1.30566 0.522138C1.66718 0.22541 2.2135 0.0733925 2.67728 0.0182256Z" fill="#FAF9F6"/>
</svg>
