<svg width="35" height="35" viewBox="0 0 35 35" fill="none" xmlns="http://www.w3.org/2000/svg">
<path d="M6.31428 29.3961C8.59824 29.7567 11.462 29.2688 14.3894 28.0243C17.3098 26.7869 20.1807 24.8352 22.4929 22.5371C24.7981 20.232 26.7567 17.3682 28.0083 14.4478C29.267 11.5204 29.762 8.64956 29.4084 6.37267C29.069 4.18064 27.973 2.56137 26.2406 1.66334C25.1163 1.09059 23.7445 1.30273 22.8323 2.2149L19.714 5.33324C19.0917 5.95549 18.7806 6.81816 18.8584 7.6879C18.9291 8.55057 19.3816 9.32839 20.0958 9.81629C20.1099 9.83044 20.1312 9.85164 20.1594 9.85164L20.9585 10.3254C20.4776 11.6689 19.2614 14.5681 16.8926 16.9086C14.5309 19.242 11.6317 20.4724 10.2882 20.9391L9.82153 20.133C9.82153 20.133 9.79326 20.0905 9.77912 20.0623C9.29122 19.3481 8.51338 18.8955 7.65071 18.8107C6.78097 18.7329 5.91831 19.044 5.29605 19.6663L2.17771 22.7846C1.26554 23.6968 1.04635 25.0615 1.61911 26.1858C2.51006 27.9253 4.13639 29.0284 6.32135 29.3749L6.31428 29.3961Z" fill="#FAF9F6"/>
</svg>
