<svg width="40" height="40" viewBox="0 0 40 40" fill="none" xmlns="http://www.w3.org/2000/svg">
<path d="M15.696 7.04355C17.5199 2.34785 18.4318 0 20 0C21.5682 0 22.4801 2.34785 24.304 7.04355L24.3889 7.26221C25.4194 9.91505 25.9346 11.2415 26.9846 12.0477C28.0346 12.8539 29.4129 12.9814 32.1697 13.2363L32.668 13.2824C37.1798 13.6997 39.4356 13.9084 39.9183 15.3905C40.401 16.8727 38.7257 18.4468 35.3751 21.5948L34.2569 22.6455C32.5607 24.2391 31.7127 25.0359 31.3174 26.0803C31.2437 26.2751 31.1824 26.4747 31.1339 26.6777C30.8741 27.7664 31.1224 28.9224 31.6191 31.2342L31.7737 31.9538C32.6865 36.2026 33.1429 38.3269 32.346 39.2432C32.0483 39.5856 31.6612 39.8322 31.2313 39.9533C30.0808 40.2775 28.4473 38.9029 25.1804 36.1538C23.0352 34.3486 21.9626 33.446 20.7312 33.2429C20.2468 33.163 19.7532 33.163 19.2688 33.2429C18.0374 33.446 16.9648 34.3486 14.8196 36.1538C11.5527 38.9029 9.91921 40.2775 8.76868 39.9533C8.33875 39.8322 7.95174 39.5856 7.65397 39.2432C6.85708 38.3269 7.31348 36.2026 8.22629 31.9538L8.38089 31.2342C8.87757 28.9224 9.12592 27.7664 8.8661 26.6777C8.81763 26.4747 8.75633 26.2751 8.6826 26.0803C8.28732 25.0359 7.43926 24.2391 5.74312 22.6455L4.62487 21.5948C1.27427 18.4468 -0.401034 16.8727 0.0816658 15.3905C0.564366 13.9084 2.82023 13.6997 7.33196 13.2824L7.83033 13.2363C10.587 12.9814 11.9654 12.8539 13.0154 12.0477C14.0654 11.2415 14.5806 9.91505 15.6111 7.26221L15.696 7.04355Z" fill="#F0D52D"/>
</svg>
