<svg 
          width="12.833333969116211" 
          height="16.5" fill="none" 
          xmlns="http://www.w3.org/2000/svg">
          <path d="M 0 16.5 L 0 3.6666666666666665 L 3.2083334922790527 3.6666666666666665 L 3.2083334922790527 3.208333333333333 C 3.2083334922790527 2.3173333307107287 3.520305629132281 1.5598610440889993 4.1442501213891125 0.9359165827433268 C 4.768194613645944 0.3119721213976542 5.5256669377940035 0 6.4166669845581055 0 C 7.307667031322207 0 8.065139355470269 0.3119721213976542 8.6890838477271 0.9359165827433268 C 9.31302833998393 1.5598610440889993 9.625000476837158 2.3173333307107287 9.625000476837158 3.208333333333333 L 9.625000476837158 3.6666666666666665 L 12.833333969116211 3.6666666666666665 L 12.833333969116211 16.5 L 0 16.5 Z M 4.125000204358782 3.6666666666666665 L 8.708333764757429 3.6666666666666665 L 8.708333764757429 3.208333333333333 C 8.708333764757429 2.5630000034968057 8.487722541673785 2.0197223449746766 8.046500286738073 1.5785001118977864 C 7.605278031802362 1.1372778788208961 7.062000346365429 0.9166666666666662 6.4166669845581055 0.9166666666666666 C 5.771333622750782 0.9166666666666674 5.22805593731385 1.1372778788208961 4.7868336823781386 1.5785001118977864 C 4.345611427442427 2.0197223449746766 4.125000204358782 2.5630000034968057 4.125000204358782 3.208333333333333 L 4.125000204358782 3.6666666666666665 Z M 3.2083334922790527 7.333333333333333 L 4.125000204358782 7.333333333333333 L 4.125000204358782 4.583333333333333 L 3.2083334922790527 4.583333333333333 L 3.2083334922790527 7.333333333333333 Z M 8.708333764757429 7.333333333333333 L 9.625000476837158 7.333333333333333 L 9.625000476837158 4.583333333333333 L 8.708333764757429 4.583333333333333 L 8.708333764757429 7.333333333333333 Z" fill="rgb(0,0,0)"/>
        </svg>