<svg width="36" height="36" viewBox="0 0 36 36" fill="none" xmlns="http://www.w3.org/2000/svg">
<path d="M25.5005 19.5001L19.5005 33.0001C18.3071 33.0001 17.1625 32.526 16.3186 31.682C15.4746 30.8381 15.0005 29.6935 15.0005 28.5001V22.5001H6.51053C6.07567 22.505 5.64494 22.4153 5.24818 22.2372C4.85141 22.0592 4.49811 21.797 4.21275 21.4688C3.92738 21.1406 3.71678 20.7543 3.59552 20.3367C3.47427 19.919 3.44527 19.48 3.51053 19.0501L5.58053 5.55005C5.68902 4.83469 6.05238 4.18264 6.60368 3.71404C7.15497 3.24545 7.85704 2.99187 8.58053 3.00005H25.5005M25.5005 19.5001V3.00005M25.5005 19.5001H29.5055C30.3545 19.5151 31.1794 19.2179 31.8237 18.6648C32.4679 18.1118 32.8867 17.3415 33.0005 16.5001V6.00005C32.8867 5.15864 32.4679 4.38831 31.8237 3.83528C31.1794 3.28226 30.3545 2.98504 29.5055 3.00005H25.5005" stroke="#1E1E1E" stroke-width="4" stroke-linecap="round" stroke-linejoin="round"/>
</svg>
